<?xml version="1.0" standalone="no"?>
<!DOCTYPE svg PUBLIC "-//W3C//DTD SVG 20010904//EN"
 "http://www.w3.org/TR/2001/REC-SVG-20010904/DTD/svg10.dtd">
<svg version="1.0" xmlns="http://www.w3.org/2000/svg"
 width="64.000000pt" height="64.000000pt" viewBox="0 0 64.000000 64.000000"
 preserveAspectRatio="xMidYMid meet">

<g transform="translate(0.000000,64.000000) scale(0.100000,-0.100000)"
 stroke="none">
<path d="M308 498 c-141 -51 -249 -97 -252 -105 -7 -17 109 -143 130 -143 7 0
55 35 106 77 51 42 116 95 143 117 l50 41 -41 -50 c-22 -27 -75 -92 -117 -143
-42 -51 -77 -99 -77 -106 0 -21 126 -137 143 -130 8 3 54 113 106 256 70 193
89 254 80 264 -6 8 -14 14 -18 13 -3 0 -117 -41 -253 -91z"/>
</g>
</svg>
